FFmpeg version SVN-r25716, Copyright (c) 2000-2010 the FFmpeg developers  built on Nov 10 2010 12:23:18 with gcc 4.1.2 20080704 (Red Hat 4.1.2-48)  configuration: --enable-libmp3lame --enable-shared --disable-mmx --arch=x86_64  libavutil     50.33. 0 / 50.33. 0  libavcore      0.12. 1 /  0.12. 1  libavcodec    52.94. 4 / 52.94. 4  libavformat   52.84. 0 / 52.84. 0  libavdevice   52. 2. 2 / 52. 2. 2  libavfilter    1.59. 0 /  1.59. 0  libswscale     0.12. 0 /  0.12. 0Input #0, avi, from '/RAID10/data/converted_video_files/47651.avi':  Duration: 00:00:15.00, start: 0.000000, bitrate: 187530 kb/s    Stream #0.0: Video: msvideo1, rgb555le, 1024x1024, 20 tbr, 20 tbn, 20 tbc[buffer @ 0x147d3050] w:1024 h:1024 pixfmt:rgb555le[ffsink @ 0x147d32c0] auto-inserting filter 'auto-inserted scaler 0' between the filter 'src' and the filter 'out'[scale @ 0x147e5250] w:1024 h:1024 fmt:rgb555le -> w:1024 h:1024 fmt:yuv420p flags:0x4Output #0, flv, to '/RAID10/data/converted_video_files/47651.flv':  Metadata:    encoder         : Lavf52.84.0    Stream #0.0: Video: flv, yuv420p, 1024x1024, q=2-31, 600 kb/s, 1k tbn, 24 tbcStream mapping:  Stream #0.0 -> #0.0Press [q] to stop encodingframe=    9 fps=  0 q=15.2 size=     548kB time=0.46 bitrate=9784.6kbits/s    frame=   20 fps= 17 q=31.0 size=     582kB time=1.00 bitrate=4773.2kbits/s    frame=   31 fps= 18 q=31.0 size=     615kB time=1.54 bitrate=3268.3kbits/s    frame=   41 fps= 19 q=31.0 size=     647kB time=2.04 bitrate=2598.4kbits/s    frame=   51 fps= 19 q=31.0 size=     680kB time=2.54 bitrate=2190.8kbits/s    frame=   62 fps= 19 q=31.0 size=     713kB time=3.08 bitrate=1894.5kbits/s    frame=   72 fps= 19 q=31.0 size=     719kB time=3.58 bitrate=1643.6kbits/s    frame=   78 fps= 18 q=31.0 size=     749kB time=3.88 bitrate=1583.2kbits/s    frame=   87 fps= 18 q=31.0 size=     781kB time=4.33 bitrate=1475.3kbits/s    frame=   97 fps= 18 q=24.8 size=     814kB time=4.83 bitrate=1378.8kbits/s    frame=  107 fps= 18 q=31.0 size=     820kB time=5.33 bitrate=1259.0kbits/s    frame=  118 fps= 18 q=31.0 size=     853kB time=5.88 bitrate=1189.7kbits/s    frame=  129 fps= 19 q=31.0 size=     886kB time=6.46 bitrate=1124.1kbits/s    frame=  140 fps= 19 q=31.0 size=     920kB time=7.00 bitrate=1076.3kbits/s    frame=  151 fps= 19 q=31.0 size=     953kB time=7.54 bitrate=1035.3kbits/s    frame=  162 fps= 19 q=31.0 size=     988kB time=8.08 bitrate=1001.1kbits/s    frame=  172 fps= 19 q=31.0 size=    1022kB time=8.58 bitrate= 975.0kbits/s    frame=  183 fps= 19 q=31.0 size=    1055kB time=9.12 bitrate= 947.3kbits/s    frame=  192 fps= 19 q=31.0 size=    1061kB time=9.58 bitrate= 907.0kbits/s    frame=  200 fps= 19 q=30.8 size=    1093kB time=10.00 bitrate= 895.4kbits/s    frame=  210 fps= 19 q=30.3 size=    1126kB time=10.50 bitrate= 878.8kbits/s    frame=  221 fps= 19 q=27.9 size=    1161kB time=11.04 bitrate= 861.4kbits/s    frame=  232 fps= 19 q=25.8 size=    1196kB time=11.58 bitrate= 845.9kbits/s    frame=  243 fps= 19 q=26.1 size=    1232kB time=12.12 bitrate= 832.4kbits/s    frame=  253 fps= 19 q=17.0 size=    1268kB time=12.62 bitrate= 822.5kbits/s    frame=  263 fps= 19 q=22.3 size=    1276kB time=13.12 bitrate= 796.3kbits/s    frame=  274 fps= 19 q=22.4 size=    1313kB time=13.71 bitrate= 784.7kbits/s    frame=  285 fps= 19 q=25.7 size=    1353kB time=14.25 bitrate= 777.6kbits/s    frame=  296 fps= 19 q=21.2 size=    1390kB time=14.79 bitrate= 769.8kbits/s    frame=  300 fps= 19 q=18.2 Lsize=    1394kB time=15.00 bitrate= 761.1kbits/s    video:1389kB audio:0kB global headers:0kB muxing overhead 0.352329%